<svg width="55" height="55" viewBox="0 0 55 55" fill="none" xmlns="http://www.w3.org/2000/svg">
<g clip-path="url(#clip0_8_125)">
<path d="M7.32097 0.0496826C5.52307 0.0496826 3.79881 0.763894 2.52751 2.0352C1.2562 3.3065 0.541992 5.03076 0.541992 6.82866L0.541992 47.5025C0.541992 49.3004 1.2562 51.0247 2.52751 52.296C3.79881 53.5673 5.52307 54.2815 7.32097 54.2815H47.9948C49.7927 54.2815 51.517 53.5673 52.7883 52.296C54.0596 51.0247 54.7738 49.3004 54.7738 47.5025V6.82866C54.7738 5.03076 54.0596 3.3065 52.7883 2.0352C51.517 0.763894 49.7927 0.0496826 47.9948 0.0496826L7.32097 0.0496826ZM41.3176 16.8954C41.7883 17.3657 42.056 18.0019 42.0629 18.6673C42.0699 19.3327 41.8157 19.9744 41.3548 20.4544L27.824 37.368C27.5914 37.6184 27.3108 37.8194 26.9988 37.959C26.6867 38.0985 26.3498 38.1737 26.0081 38.18C25.6663 38.1863 25.3269 38.1237 25.0099 37.9958C24.6929 37.8679 24.405 37.6774 24.1633 37.4357L15.1981 28.4672C14.9484 28.2344 14.7481 27.9538 14.6091 27.642C14.4702 27.3301 14.3955 26.9935 14.3894 26.6522C14.3834 26.3108 14.4462 25.9718 14.5741 25.6552C14.7019 25.3387 14.8922 25.0512 15.1336 24.8098C15.375 24.5684 15.6626 24.3781 15.9791 24.2502C16.2956 24.1224 16.6347 24.0596 16.976 24.0656C17.3173 24.0716 17.654 24.1463 17.9658 24.2853C18.2776 24.4242 18.5583 24.6245 18.791 24.8743L25.8886 31.9685L37.6603 16.97C37.8924 16.7191 38.1727 16.5175 38.4844 16.3774C38.7962 16.2373 39.133 16.1615 39.4748 16.1545C39.8165 16.1476 40.1561 16.2096 40.4733 16.3369C40.7905 16.4642 41.0788 16.6542 41.3209 16.8954H41.3176Z" fill="white"/>
</g>
<defs>
<clipPath id="clip0_8_125">
<rect width="54.2318" height="54.2318" fill="white" transform="translate(0.541992 0.0496826)"/>
</clipPath>
</defs>
</svg>
